# xmcd
#
# Track frame offsets:
# 150
# 36432
# 49795
# 82364
# 106675
# 130679
# 141503
# 159203
# 193848
# 214338
#
# Disc length: 3075 seconds
#
# Revision: 0
# Processed by: cddbd v1.5.2PL0 Copyright (c) Steve Scherf et al.
# Submitted via: Axialis_AX_CDPlayer 2.6
#
DISCID=920c010a
DTITLE=Elmore James Jr. and the Broom  Dusters - Elmore James Jr. and the Broom 
DTITLE=\nDusters Blues Band
DYEAR=1900
DGENRE=
TTITLE0=Stepping With Elmore
TTITLE1=Crazy About Ida Mae
TTITLE2=That's All Right
TTITLE3=Forrestville Arkansas Blues
TTITLE4=I Should Have Quit You
TTITLE5=Bad Feeling
TTITLE6=Dust My Broom
TTITLE7=Bitter With The Sweet
TTITLE8=Oh Babe
TTITLE9=Cummins Prison Blues
EXTD=
EXTT0=
EXTT1=
EXTT2=
EXTT3=
EXTT4=
EXTT5=
EXTT6=
EXTT7=
EXTT8=
EXTT9=
PLAYORDER=
